
<!-- <?xml version="1.0" encoding="UTF-8"?> -->
<!-- <svg width="46px" height="35px" viewBox="0 0 46 35" version="1.1" xmlns="http://www.w3.org/2000/svg" xmlns:xlink="http://www.w3.org/1999/xlink"> -->
<svg xmlns="http://www.w3.org/2000/svg" viewBox="0 0 800 600" width="800" height="600" preserveAspectRatio="xMidYMid meet" style="width: 100%; height: 100%; transform: translate3d(0px, 0px, 0px);"><defs><clipPath id="__lottie_element_30"><rect width="800" height="600" x="0" y="0"></rect></clipPath><mask id="__lottie_element_31" mask-type="alpha"><g transform="matrix(1.254520058631897,0,0,1.254520058631897,400,300)" opacity="1" style="display: block;"><g opacity="1" transform="matrix(1,0,0,1,-2.7929999828338623,-0.7929999828338623)"><path fill="rgb(255,0,0)" fill-opacity="1" d=" M81.20700073242188,-81.20700073242188 C81.20700073242188,-81.20700073242188 81.20700073242188,81.20700073242188 81.20700073242188,81.20700073242188 C81.20700073242188,81.20700073242188 -81.20700073242188,81.20700073242188 -81.20700073242188,81.20700073242188 C-81.20700073242188,81.20700073242188 -81.20700073242188,-81.20700073242188 -81.20700073242188,-81.20700073242188 C-81.20700073242188,-81.20700073242188 81.20700073242188,-81.20700073242188 81.20700073242188,-81.20700073242188z"></path><path stroke-linecap="butt" stroke-linejoin="miter" fill-opacity="0" stroke-miterlimit="4" stroke="rgb(255,255,255)" stroke-opacity="1" stroke-width="1" d=" M81.20700073242188,-81.20700073242188 C81.20700073242188,-81.20700073242188 81.20700073242188,81.20700073242188 81.20700073242188,81.20700073242188 C81.20700073242188,81.20700073242188 -81.20700073242188,81.20700073242188 -81.20700073242188,81.20700073242188 C-81.20700073242188,81.20700073242188 -81.20700073242188,-81.20700073242188 -81.20700073242188,-81.20700073242188 C-81.20700073242188,-81.20700073242188 81.20700073242188,-81.20700073242188 81.20700073242188,-81.20700073242188z"></path></g></g></mask></defs><g clip-path="url(#__lottie_element_30)"><g transform="matrix(0,0,0,0,511.5419921875,192.72900390625)" opacity="0.25" style="display: block;"><g opacity="1" transform="matrix(1,0,0,1,0,0)"><path fill="rgb(243,0,0)" fill-opacity="1" d=" M4.546999931335449,-10.022000312805176 C2.7950000762939453,-10.022000312805176 1.1990000009536743,-9.352999687194824 0,-8.256999969482422 C-1.1990000009536743,-9.352999687194824 -2.7950000762939453,-10.022000312805176 -4.546999931335449,-10.022000312805176 C-8.270999908447266,-10.022000312805176 -11.288999557495117,-7.004000186920166 -11.288999557495117,-3.2799999713897705 C-11.288999557495117,-1.1349999904632568 -10.543000221252441,0.6420000195503235 -9.131999969482422,2.328000068664551 C-7.7210001945495605,4.013999938964844 -0.004000000189989805,10.022000312805176 -0.004000000189989805,10.022000312805176 C-0.004000000189989805,10.022000312805176 7.760000228881836,4.039999961853027 9.140000343322754,2.2880001068115234 C10.467000007629395,0.6029999852180481 11.288999557495117,-1.121999979019165 11.288999557495117,-3.2799999713897705 C11.288999557495117,-7.004000186920166 8.270999908447266,-10.022000312805176 4.546999931335449,-10.022000312805176z"></path><path stroke-linecap="butt" stroke-linejoin="miter" fill-opacity="0" stroke-miterlimit="4" stroke="rgb(255,255,255)" stroke-opacity="1" stroke-width="12" d="M0 0"></path></g></g><g transform="matrix(0,0,0,0,258.5419921875,224.72900390625)" opacity="0.25" style="display: block;"><g opacity="1" transform="matrix(1,0,0,1,0,0)"><path fill="rgb(243,0,0)" fill-opacity="1" d=" M4.546999931335449,-10.022000312805176 C2.7950000762939453,-10.022000312805176 1.1990000009536743,-9.352999687194824 0,-8.256999969482422 C-1.1990000009536743,-9.352999687194824 -2.7950000762939453,-10.022000312805176 -4.546999931335449,-10.022000312805176 C-8.270999908447266,-10.022000312805176 -11.288999557495117,-7.004000186920166 -11.288999557495117,-3.2799999713897705 C-11.288999557495117,-1.1349999904632568 -10.543000221252441,0.6420000195503235 -9.131999969482422,2.328000068664551 C-7.7210001945495605,4.013999938964844 -0.004000000189989805,10.022000312805176 -0.004000000189989805,10.022000312805176 C-0.004000000189989805,10.022000312805176 7.760000228881836,4.039999961853027 9.140000343322754,2.2880001068115234 C10.467000007629395,0.6029999852180481 11.288999557495117,-1.121999979019165 11.288999557495117,-3.2799999713897705 C11.288999557495117,-7.004000186920166 8.270999908447266,-10.022000312805176 4.546999931335449,-10.022000312805176z"></path><path stroke-linecap="butt" stroke-linejoin="miter" fill-opacity="0" stroke-miterlimit="4" stroke="rgb(255,255,255)" stroke-opacity="1" stroke-width="12" d="M0 0"></path></g></g><g transform="matrix(0,0,0,0,475.5419921875,111.72899627685547)" opacity="0.25" style="display: block;"><g opacity="1" transform="matrix(1,0,0,1,0,0)"><path fill="rgb(243,0,0)" fill-opacity="1" d=" M4.546999931335449,-10.022000312805176 C2.7950000762939453,-10.022000312805176 1.1990000009536743,-9.352999687194824 0,-8.256999969482422 C-1.1990000009536743,-9.352999687194824 -2.7950000762939453,-10.022000312805176 -4.546999931335449,-10.022000312805176 C-8.270999908447266,-10.022000312805176 -11.288999557495117,-7.004000186920166 -11.288999557495117,-3.2799999713897705 C-11.288999557495117,-1.1349999904632568 -10.543000221252441,0.6420000195503235 -9.131999969482422,2.328000068664551 C-7.7210001945495605,4.013999938964844 -0.004000000189989805,10.022000312805176 -0.004000000189989805,10.022000312805176 C-0.004000000189989805,10.022000312805176 7.760000228881836,4.039999961853027 9.140000343322754,2.2880001068115234 C10.467000007629395,0.6029999852180481 11.288999557495117,-1.121999979019165 11.288999557495117,-3.2799999713897705 C11.288999557495117,-7.004000186920166 8.270999908447266,-10.022000312805176 4.546999931335449,-10.022000312805176z"></path><path stroke-linecap="butt" stroke-linejoin="miter" fill-opacity="0" stroke-miterlimit="4" stroke="rgb(255,255,255)" stroke-opacity="1" stroke-width="12" d="M0 0"></path></g></g><g transform="matrix(0,0,0,0,304.5419921875,130.72900390625)" opacity="0.25" style="display: block;"><g opacity="1" transform="matrix(1,0,0,1,0,0)"><path fill="rgb(243,0,0)" fill-opacity="1" d=" M4.546999931335449,-10.022000312805176 C2.7950000762939453,-10.022000312805176 1.1990000009536743,-9.352999687194824 0,-8.256999969482422 C-1.1990000009536743,-9.352999687194824 -2.7950000762939453,-10.022000312805176 -4.546999931335449,-10.022000312805176 C-8.270999908447266,-10.022000312805176 -11.288999557495117,-7.004000186920166 -11.288999557495117,-3.2799999713897705 C-11.288999557495117,-1.1349999904632568 -10.543000221252441,0.6420000195503235 -9.131999969482422,2.328000068664551 C-7.7210001945495605,4.013999938964844 -0.004000000189989805,10.022000312805176 -0.004000000189989805,10.022000312805176 C-0.004000000189989805,10.022000312805176 7.760000228881836,4.039999961853027 9.140000343322754,2.2880001068115234 C10.467000007629395,0.6029999852180481 11.288999557495117,-1.121999979019165 11.288999557495117,-3.2799999713897705 C11.288999557495117,-7.004000186920166 8.270999908447266,-10.022000312805176 4.546999931335449,-10.022000312805176z"></path><path stroke-linecap="butt" stroke-linejoin="miter" fill-opacity="0" stroke-miterlimit="4" stroke="rgb(255,255,255)" stroke-opacity="1" stroke-width="12" d="M0 0"></path></g></g><g transform="matrix(0,0,0,0,536.5419921875,311.72900390625)" opacity="0.25" style="display: block;"><g opacity="1" transform="matrix(1,0,0,1,0,0)"><path fill="rgb(243,0,0)" fill-opacity="1" d=" M4.546999931335449,-10.022000312805176 C2.7950000762939453,-10.022000312805176 1.1990000009536743,-9.352999687194824 0,-8.256999969482422 C-1.1990000009536743,-9.352999687194824 -2.7950000762939453,-10.022000312805176 -4.546999931335449,-10.022000312805176 C-8.270999908447266,-10.022000312805176 -11.288999557495117,-7.004000186920166 -11.288999557495117,-3.2799999713897705 C-11.288999557495117,-1.1349999904632568 -10.543000221252441,0.6420000195503235 -9.131999969482422,2.328000068664551 C-7.7210001945495605,4.013999938964844 -0.004000000189989805,10.022000312805176 -0.004000000189989805,10.022000312805176 C-0.004000000189989805,10.022000312805176 7.760000228881836,4.039999961853027 9.140000343322754,2.2880001068115234 C10.467000007629395,0.6029999852180481 11.288999557495117,-1.121999979019165 11.288999557495117,-3.2799999713897705 C11.288999557495117,-7.004000186920166 8.270999908447266,-10.022000312805176 4.546999931335449,-10.022000312805176z"></path><path stroke-linecap="butt" stroke-linejoin="miter" fill-opacity="0" stroke-miterlimit="4" stroke="rgb(255,255,255)" stroke-opacity="1" stroke-width="12" d="M0 0"></path></g></g><g transform="matrix(0,0,0,0,387.5419921875,71.72899627685547)" opacity="0.25" style="display: block;"><g opacity="1" transform="matrix(1,0,0,1,0,0)"><path fill="rgb(243,0,0)" fill-opacity="1" d=" M4.546999931335449,-10.022000312805176 C2.7950000762939453,-10.022000312805176 1.1990000009536743,-9.352999687194824 0,-8.256999969482422 C-1.1990000009536743,-9.352999687194824 -2.7950000762939453,-10.022000312805176 -4.546999931335449,-10.022000312805176 C-8.270999908447266,-10.022000312805176 -11.288999557495117,-7.004000186920166 -11.288999557495117,-3.2799999713897705 C-11.288999557495117,-1.1349999904632568 -10.543000221252441,0.6420000195503235 -9.131999969482422,2.328000068664551 C-7.7210001945495605,4.013999938964844 -0.004000000189989805,10.022000312805176 -0.004000000189989805,10.022000312805176 C-0.004000000189989805,10.022000312805176 7.760000228881836,4.039999961853027 9.140000343322754,2.2880001068115234 C10.467000007629395,0.6029999852180481 11.288999557495117,-1.121999979019165 11.288999557495117,-3.2799999713897705 C11.288999557495117,-7.004000186920166 8.270999908447266,-10.022000312805176 4.546999931335449,-10.022000312805176z"></path><path stroke-linecap="butt" stroke-linejoin="miter" fill-opacity="0" stroke-miterlimit="4" stroke="rgb(255,255,255)" stroke-opacity="1" stroke-width="12" d="M0 0"></path></g></g><g transform="matrix(0,0,0,0,320.5419921875,326.72900390625)" opacity="0.25" style="display: block;"><g opacity="1" transform="matrix(1,0,0,1,0,0)"><path fill="rgb(243,0,0)" fill-opacity="1" d=" M4.546999931335449,-10.022000312805176 C2.7950000762939453,-10.022000312805176 1.1990000009536743,-9.352999687194824 0,-8.256999969482422 C-1.1990000009536743,-9.352999687194824 -2.7950000762939453,-10.022000312805176 -4.546999931335449,-10.022000312805176 C-8.270999908447266,-10.022000312805176 -11.288999557495117,-7.004000186920166 -11.288999557495117,-3.2799999713897705 C-11.288999557495117,-1.1349999904632568 -10.543000221252441,0.6420000195503235 -9.131999969482422,2.328000068664551 C-7.7210001945495605,4.013999938964844 -0.004000000189989805,10.022000312805176 -0.004000000189989805,10.022000312805176 C-0.004000000189989805,10.022000312805176 7.760000228881836,4.039999961853027 9.140000343322754,2.2880001068115234 C10.467000007629395,0.6029999852180481 11.288999557495117,-1.121999979019165 11.288999557495117,-3.2799999713897705 C11.288999557495117,-7.004000186920166 8.270999908447266,-10.022000312805176 4.546999931335449,-10.022000312805176z"></path><path stroke-linecap="butt" stroke-linejoin="miter" fill-opacity="0" stroke-miterlimit="4" stroke="rgb(255,255,255)" stroke-opacity="1" stroke-width="12" d="M0 0"></path></g></g><g style="display: none;"><g><path></path><path stroke-linecap="butt" stroke-linejoin="miter" fill-opacity="0" stroke-miterlimit="4"></path></g></g><g mask="url(#__lottie_element_31)" style="display: block;"><g transform="matrix(0.8999999761581421,0,0,0.8999999761581421,400,300)" opacity="1"><g opacity="1" transform="matrix(1,0,0,1,0,0)"><path fill="rgb(243,0,0)" fill-opacity="1" d=" M-0.07900000363588333,51.13600158691406 C-0.07900000363588333,51.13600158691406 -24.322999954223633,27.045000076293945 -31.29800033569336,19.450000762939453 C-39.72200012207031,10.277999877929688 -56.645999908447266,-3.3329999446868896 -56.645999908447266,-21.224000930786133 C-56.645999908447266,-41.39400100708008 -43.05500030517578,-52.42499923706055 -24.51099967956543,-52.42499923706055 C-10.833000183105469,-52.42499923706055 -5.210000038146973,-45.513999938964844 0.8349999785423279,-41.38100051879883 C6.879000186920166,-45.51499938964844 11.388999938964844,-52.42499923706055 26.17799949645996,-52.42499923706055 C44.444000244140625,-52.42499923706055 58.03499984741211,-41.50699996948242 58.03499984741211,-21.336999893188477 C58.03499984741211,-6.223999977111816 41.66699981689453,10 33.391998291015625,19.1299991607666 C26.302000045776367,26.95199966430664 -0.07900000363588333,51.13600158691406 -0.07900000363588333,51.13600158691406z"></path><path stroke-linecap="butt" stroke-linejoin="miter" fill-opacity="0" stroke-miterlimit="4" stroke="rgb(243,0,0)" stroke-opacity="1" stroke-width="12" d="M0 0"></path></g></g></g></g></svg>