<?xml version="1.0" standalone="no"?>
<!DOCTYPE svg PUBLIC "-//W3C//DTD SVG 20010904//EN"
 "http://www.w3.org/TR/2001/REC-SVG-20010904/DTD/svg10.dtd">
<svg version="1.0" xmlns="http://www.w3.org/2000/svg"
 width="528.000000pt" height="528.000000pt" viewBox="0 0 528.000000 528.000000"
 preserveAspectRatio="xMidYMid meet">
<metadata>
Created by potrace 1.11, written by Peter Selinger 2001-2013
</metadata>
<g transform="translate(0.000000,528.000000) scale(0.100000,-0.100000)"
fill="#000000" stroke="none">
<path d="M528 5263 c-45 -11 -43 91 -42 -2614 1 -1405 2 -2564 3 -2576 1 -13
10 -32 21 -43 20 -20 33 -20 1918 -20 2092 0 1957 -4 2092 63 85 42 188 145
230 230 64 131 60 -38 59 2342 l0 2170 -23 71 c-63 195 -221 337 -414 372 -51
9 -3805 14 -3844 5z m653 -165 c0 -18 1 -1138 1 -2488 l1 -2455 -279 0 -279 0
-1 2480 c0 1364 1 2483 3 2487 2 3 127 7 278 7 l275 1 1 -32z"/>
</g>
</svg>
